<?xml version="1.0" encoding="UTF-8"?>
<svg id="Layer_2" data-name="Layer 2" xmlns="http://www.w3.org/2000/svg" viewBox="0 0 594.87 73.83">
  <defs>
    <style>
      .cls-1 {
        fill: #fff;
        stroke-width: 0px;
      }
    </style>
  </defs>
  <g id="Layer_1-2" data-name="Layer 1-2">
    <g>
      <path class="cls-1" d="M359.53,0c2.12.35,4.27.59,6.36,1.07,16.27,3.8,26.94,16.42,27.99,33.09.61,9.71-1.73,18.59-7.94,26.24-5.85,7.21-13.57,11.26-22.66,12.71-8.86,1.41-17.49.5-25.55-3.65-11.08-5.71-17.31-14.94-18.98-27.18-1.27-9.27.3-18.06,5.46-25.98,5.98-9.18,14.7-14.14,25.42-15.82,1.06-.17,2.12-.32,3.18-.47h6.72ZM356.77,60.88c6.56-.08,12.8-2.37,17.53-7.95,6.29-7.43,7.42-19.45,2.65-28.22-4.09-7.52-10.69-11.19-19.08-11.74-6.54-.42-12.55,1.16-17.58,5.55-4.99,4.37-7.31,10.03-7.73,16.54-.91,14.11,8.33,25.78,24.21,25.82Z"/>
      <path class="cls-1" d="M96.59,0c1.8.3,3.63.53,5.41.92,12.08,2.67,19.66,11.09,20.98,23.33.22,2.02.34,4.05.34,6.08.03,13.44.02,26.87.02,40.31v1.56h-13.92v-1.58c0-13.4.04-26.79-.03-40.19-.01-2.33-.23-4.72-.78-6.98-1.28-5.31-4.75-8.63-10.07-9.94-3.59-.88-7.22-.89-10.81,0-5.94,1.46-9.7,5.71-10.55,11.9-.21,1.53-.3,3.1-.3,4.64-.02,13.55-.01,27.11-.01,40.66v1.46h-13.83c-.03-.19-.1-.38-.09-.56.02-14.95-.1-29.9.13-44.85.11-6.9,2.36-13.24,7.24-18.39,4.41-4.66,10.02-6.96,16.27-7.93,1.01-.12,2.03-.28,3.05-.44h6.95Z"/>
      <path class="cls-1" d="M437.02,0c1.84.31,3.7.55,5.52.95,11.86,2.59,19.57,11.18,20.84,23.21.22,2.06.33,4.13.34,6.2.03,13.52.02,27.03.02,40.55v1.27h-13.94v-1.44c0-13.52.04-27.03-.03-40.55-.01-2.29-.24-4.64-.79-6.85-1.29-5.15-4.65-8.42-9.82-9.75-3.67-.94-7.37-.96-11.04-.06-5.91,1.45-9.64,5.65-10.52,11.8-.23,1.65-.33,3.33-.34,5-.03,13.44-.01,26.87-.01,40.31v1.58h-13.83c-.04-.25-.11-.48-.11-.71.01-14.39,0-28.78.06-43.18.02-5.29,1.14-10.37,3.75-15.03,4.03-7.19,10.44-10.98,18.34-12.55,1.52-.3,3.06-.49,4.59-.74h6.97Z"/>
      <path class="cls-1" d="M259.01,0c1.95.4,3.92.68,5.83,1.21,9.27,2.61,15.19,9.68,16.18,19.21.04.39,0,.79,0,1.27h-13.04c-.07-.54-.11-1.05-.2-1.55-.64-3.3-2.62-5.52-5.72-6.67-3.84-1.41-7.76-1.45-11.62-.06-3.24,1.17-5.31,3.44-5.93,6.9-.59,3.32.52,6.09,3.66,7.39,2.88,1.2,5.99,1.88,9.03,2.64,4.06,1.02,8.24,1.61,12.22,2.88,10.2,3.26,13.69,10.65,12.71,20.69-.88,9.13-6.14,15.06-14.7,17.92-8.47,2.84-17.03,2.71-25.29-.86-7.76-3.36-11.86-9.51-12.61-17.89-.03-.39,0-.79,0-1.3h12.51c.51,0,1.03-.1,1.1.7.41,4.58,3.25,7,7.45,8.08,3.92,1,7.85.94,11.7-.3,3.93-1.26,6.12-4.06,6.36-7.81.2-3-.96-5.34-3.7-6.49-2.51-1.06-5.2-1.75-7.86-2.41-4.56-1.13-9.25-1.85-13.73-3.22-5.77-1.77-10.1-5.4-11.65-11.48-3.18-12.51,2.62-24.48,16.36-27.91,1.64-.39,3.3-.63,4.94-.94h6Z"/>
      <path class="cls-1" d="M594.87,14.35h-21.12v57.82h-13.94V14.37h-21.18V1.44h56.23v12.92h.01Z"/>
      <path class="cls-1" d="M52.2,1.51v12.8H13.89v15.76h32.01v12.41H13.88v16.98h38.29v12.71H0V1.51h52.2Z"/>
      <path class="cls-1" d="M128.28,1.46h15.07c6.15,18.1,12.29,36.18,18.55,54.63,6.22-18.43,12.33-36.52,18.44-54.62h14.79c-.79,2.18-1.55,4.27-2.31,6.36-7.67,21.1-15.34,42.2-22.98,63.31-.31.85-.66,1.16-1.58,1.15-4.4-.05-8.79-.04-13.19,0-.77,0-1.11-.25-1.37-.95-8.38-23-16.77-46-25.16-68.99-.09-.26-.16-.52-.27-.88h0Z"/>
      <path class="cls-1" d="M218.46,1.48v70.69h-13.81V1.48h13.81Z"/>
      <path class="cls-1" d="M293.43,1.48h13.78v70.72h-13.78V1.48Z"/>
      <path class="cls-1" d="M528.18,72.2h-13.78V1.48h13.78s0,70.72,0,70.72Z"/>
      <path class="cls-1" d="M471.92,48.99v-12.3h32.46v12.3h-32.46Z"/>
    </g>
  </g>
</svg>